<svg id="loader" width="593.7899780273438" height="460.5" version="1.1" viewBox="0 0 593.79 460.5" xmlns="http://www.w3.org/2000/svg" xmlns:xlink="http://www.w3.org/1999/xlink">
    <g transform="translate(-6.2086 -101.88)" stroke="#fff">
     <path d="m41.028 158.45 4.7879-1.7791 2.654-2.5264 0.57412-0.0825 2.814-3.0549 0.4006 0.0385 4.3978-4.3458 2.9009-6.0677 7.4633-4.3956 1.0901-1.3309 2.8872-1.8844 1.7468-1.8572 0.10268-0.47117 1.7921-1.7916-0.0122-0.28517 1.3076-1.3498 0.27796-0.48433 3.2636-1.744 0.12994-0.54728 0.59697-0.35948-0.0678-1.8728 2.6606-1.9186 0.24544-0.77739 1.5383-2.7365 0.90737-0.69828 2.6924-0.27068 0.43999-0.65729 0.50497-4e-3 1.5678-1.5505 0.0552-0.43188 0.66356-1.0874 0.49139-1.2045 0.71375-0.95551 1.4751-2.4844 1.8125-1.9174-5e-3 -0.51184 4.4186-2.5223 0.67309-0.28908 0.31719 0.26513 1.8742-2.7e-4 0.40301 0.34969 1.7661 0.0195 0.28624 0.28918 1.52-0.0738 0.238 0.37425 0.37937 0.0253 0.29395 0.28564 0.6306 0.01 0.23563 0.32456 0.45788-0.0371 0.25075 0.33832 0.59353-2e-3 0.27855 0.26065 0.36515 0.0477 0.89316 0.32082 0.6883 0.30961 0.89349 0.28347 0.94212 0.34484 0.63185 0.31849 0.55862 0.24137 0.61293-0.24568 0.91148-0.29505 0.36845-0.33677 0.62665-0.30395 0.85109-0.0826 0.34872-0.2217 1.2369-0.036 0.30041-0.25061 0.34216-0.2842 0.25988-0.38176 0.67532 0.0212 0.10933 1.1735 0.89558-0.0476 0.20263-0.23617 0.98772-0.0312 0.48142 0.0964 0.70501-0.32617 0.28524-0.35592 0.7318-0.0534-0.31577 0.43767-0.0291 0.61226 0.6101 0.12422 0.65006 0.92887-1.7972 0.23527 1.1878 2.8192 0.72581 1.227 2.3056 1.8835 2.0674 1.1142 0.11001 0.66703 3.0248 1.9094 1.861 1.1948 1.2613 0.76028 0.90569 1.1655 0.17755 0.81304 0.34414 0.82824 0.0277 3.1946 0.18906 1.0631 0.67258 0.7295 1.3308 1.4953 0.85934 0.5223 1.0311 0.51364 0.79116 0.55834 3.0731 1.9804 0.37782 1.5648 0.91594 1.3809 0.69956 0.13562 0.87101 1.9687-0.0536 1.1338 2.6741 2.2904 8.0458 6.725 2.5325 0.44525 2.1881 0.0501 0.89262 0.82839 2.8426 0.27242 0.83785-1.5288 0.31438 1.2419 1.2111 0.56929 0.91913-0.80407 0.26946-1.2425 0.49755 0.26523-0.072 0.7424 2.0316 1.0232 1.132-1.0517 0.73034-0.11519 0.47331 0.24124 0.0218 1.0063 0.58121 0.5279 0.65359-0.11131 0.763 1.9163 0.79465 0.14902-0.77037 0.85113 0.0209 1.4797 0.63584 0.75806 1.2606 0.46485 0.7092 0.46556 0.1007 0.98087 1.6273 0.41171 0.3048-0.30222 0.1124-0.88446 0.5919-0.37038 0.0717 1.7704 1.2251 0.74552 0.55919 0.74008 1.6631 1.0055 3.0968-0.12224 1.6197-0.86711 2.0954-0.029 1.4526-0.12746 2.9019 0.51892 2.4324 1.0235 1.8056 1.4317 2.4462-0.75179 1.9523 0.39289 1.6366 0.67618 3.5629 1.2621 1.9251 1.0514 2.7498 0.48306 2.4369 0.34302 2.5913 1.1172 0.63414 0.29099 2.2563-0.31715 1.9737-1.0507 1.6404-1.2488 0.57212-0.85722 1.3229 0.17516 0.96084 0.32527 1.0988-0.063 0.51019 0.15074 1.593-0.53167 1.847-0.69353 1.3472-0.79862 1.5196-0.2824 2.3674-0.76671 0.76172-0.33183 3.8344-0.32975 0.76508-0.10355 0.44242-0.35386 0.58041 0.18193 1.4311-0.0419 1.2622-0.24306 2.7071-0.15928 0.37281-0.60755 0.40592-0.32336 0.5303-0.33124 1.6113-0.71753 1.8681-0.87021 1.283-1.2875 0.40581-0.32208 0.55846-0.57837 0.40065-0.23643 0.7764-0.0968 0.59738-0.1458 0.70553-0.26955 0.51206-0.6395 0.82475 0.0307h0.80296l0.91734-0.29199 1.8111-0.72172 0.21695-0.50411 0.46146-0.36152 0.412 0.08 1.8736-1.7854-0.0909-0.37034 1.8634-1.8139 0.17965-0.4895 0.29223 0.01 0.99226-0.95994 1.0606-0.63733 0.39339-0.29846 2.1221-0.0311 1.9242 0.94031 0.22479 0.24013 0.60531 0.12512 0.298 0.50659-0.35234-0.0936-0.4925-0.079 1.3505 1.4944 1.484-0.044 0.34358-0.23251 1.0232-0.0546 0.12255-0.27253 0.6656-0.0315 0.25353-0.26846 1.0902-0.0858 0.15988-0.25783 0.80518 0.0332 0.0896 0.24438 0.54209 0.0926 0.0313 0.2524 2.5393-0.13086 2.0683 1.2498 0.95108-0.20683 1.0028-0.26888 0.97278-0.31065 0.44105-3e-3 1.1092 0.30261 0.93564 0.34208 0.43867 0.29558 0.48484-0.28199 0.87289-0.0611 0.34487-0.23997 0.77035-0.0795 0.0853-1.0516-0.25022-0.14459 0.29465-0.6589 0.16214 0.64164 0.19693 0.0661 0.43923 0.24594 0.43827-0.29819 0.65546-0.31681 0.92116-0.26222 0.63292-0.35142 0.59741-0.29772 1.5149-0.29312 1.5467-0.31866 1.8454-0.31377 1.8019-0.34915 4.1582-0.0653 1.7695 0.10965 1.4344-0.30569 1.721-0.37262 1.3901-0.24299 1.3748-0.35821 1.8086-0.24891 0.72427 0.26536 0.36346 0.30154 0.48029-0.26939 0.92234-0.29949 0.63127-0.29246 0.58989-0.31611 0.63869-0.28301 0.61218-0.32245 2.1624-0.0976 0.28378 0.36187 0.31564 0.33009 1.0889-0.0203 0.19034-0.27043 0.63074-0.0457 0.29718-0.31701 0.69894 0.0213 0.2286-0.30715 0.92438 7e-3 0.32058-0.3027 0.64036-0.0206 0.27107-0.29715 0.67632-0.0263 0.25435-0.28092 0.66042-5e-3 0.31412-0.2892 0.89925-0.32492 1.2698-0.95022 1.5354-0.28372 2.4091-0.04 0.3464-0.46155 0.6304 0.47677 0.8726 0.55205 0.582-0.56996 0.2227-0.47282 0.4073-0.48023 0.302 0.1307-0.028 0.25266-0.4331 0.29972-0.1053 0.54689 0.9932 0.64598 0.3411 0.67849 0.5748 0.24827 0.9205 0.31394 0.6403 0.6585 0.4394 0.24669 1.6148 3.2572 1.7665 0.83264 7.6275 1.1931 2.2242 1.1797 2.0009 2.4721 1.1892 2.8029 2.1037 2.6764 1.574 1.3608 0.6394 1.5758 1.0447 0.65268 1.8443 1.4374 1.2143 1.0832 0.4393 0.83668 1.0891 0.43391 0.6742 0.52003 0.574 0.84227 1.1843 0.41151 0.8681 0.53029 0.5983-0.2735 0.5028-0.77119 0.4961-0.0276 0.076 0.45339-0.2226 0.25818-0.4714-3e-3s-0.2125 0.24498-0.2568 0.28196c-0.044 0.037-0.2454 0.30474-0.2454 0.30474l0.3181 0.86575 0.8047 0.11586 0.2585 0.29059-0.5459 0.36058 0.085 0.75544 1.9534 0.16231 0.4181 0.73954 0.8709 0.18502 0.5462-0.32783 1.0764-0.1758 1.8605-0.63221 0.8876-2e-3 -0.6709 1.1478-0.5229 0.21101-0.7191 0.76883-0.8962 0.36354-1.0253 1.0132 0.029 0.76209-0.4765 1.8456-0.066 1.0439 0.4763 1.3798 2.0393 2.0083 0.2617 1.6564 1.925 1.6027 0.7531 0.0568 1.2183 0.58213 0.9562-0.9475 1.8033-0.71685 0.4796 1.0161-0.1393 1.0414-0.6556 0.68786 0.3755 0.41187 0.5782-0.17774 0.8768 0.49293 0.1005 0.90279 0.2549 1.1251 2.042 1.5718 2.4108 0.93916 1.6752-0.13743 1.226-0.2516 2.0154 0.31416 0.2999 2.7234 2.0582 0.74625-0.241 1.322 0.3733 0.78721 1.5904 1.4493 0.099 3.8552 1.1758 0.47186 0.1187 0.86894 0.5261 0.3483 0.9763-1.5243 1.4004-0.39574-0.1617 1.0013-0.5886 0.21838 0.1192 0.28312-0.3846 1.5041-0.219 0.8422 0.2635 0.6464 0.5653 0.86158 2.8194 2.8957 1.5721 0.7478 1.0587 0.39218 1.6859-1.0968 1.667-0.65355 1.6968 0.85173 2.1828 0.71905 1.8046 0.44108 1.2623 1.169 1.6706 1.2525 1.5031 0.21792 1.3095-6e-3 0.5005-0.81821 0.7117 0.0616-0.3001 0.55417 0.3439 0.4579 0.4229 0.47133 0.653 0.12202 0.24 0.61629 0.726 0.63475 0.6675 0.20164 1.4068-0.82693 1.3277-1.4149 1.2734 0.44645 1.5674-0.10976 0.2413-0.70293 1.2674-0.18866-0.055-0.42176-1.2292-0.7257 1.9382-0.0822 0.2213 0.53402 0.3662 0.82777 1.7592 0.50406-0.1564 1.9056 0.501 0.54661 1.8928 6.2e-4 -0.1679 1.4392 0.4732 0.47324-0.162 0.18005 0.4413 0.60017 0.6359 0.11789 0.902 0.0421 0.1209-0.31561 0.4164 0.10335 1.1004 1.2621 0.4976 0.28975 0.5768 0.25051 0.2194 0.24698 0.3358-0.29683 0.7743-0.0236 0.1298-0.62145 1.0525-0.46952 0.4739-0.43638 1.452 0.0355 1.7684 0.81519 0.1022 0.87004 0.3597 0.43731 2.0994 0.0477 0.3352-0.39466 0.037-1.038 0.6335-0.3759 1.7319-0.0584 0.4625 0.22999 1.1283 0.12699 0.329 0.82469 0.8333 0.0622 0.1771-0.42645 0.2474 0.10431-0.1037 0.36068 0.3119 0.34682 0.044 0.46112 0.4873 0.0823 0.9354 0.59279 0.6108-0.25042 0.6939-0.65014 1.0274-0.0282 0.6186 0.32581 1.0004-0.0149 0.6235-0.54062 0.3313-0.0578 0.4261 0.36509 0.5823-0.0892 0.785 0.52666 0.6087 0.71238 0.6076-0.0323 0.9359 0.4287 0.8039 0.16569 0.4485 0.34344 0.2965-0.22461 1.2068-0.0759 0.5186-0.34364 0.1187 0.57175 0.5144 0.27675 0.6044 0.36828 0.6155 0.5058 0.7214 0.207 0.7971 1.3118 0.334 0.85573 0.9359 0.8742 0.6117-0.19352 0.6305-0.58188 0.3019 0.22008-0.4397 0.35759-0.046 0.44034-0.3392 0.11183 0.015 0.44594 2.0522 2.0995 0.4085-0.0152 1.1098-1.3701 0.6724 0.82151 1.2558 0.18103 0.6249-0.69311 0.1503-0.50762 0.4746-0.093 1.456-0.87405 0.5309-0.20939v-0.67795l0.7209-0.0131 0.042 0.85834 0.1983 0.14039 0.1612 1.5625 0.5547 0.37073 0.014 0.50636 0.5718-0.0561 0.3499 0.54853 2.625-0.0236 0.3022-0.41403 0.011-0.71722 0.4161 0.0725 0.1105 0.16746 0.4684-0.0346 0.3722 0.91732 1.701 0.0544 0.4495 0.21915 1.157 0.0376 0.7215-0.59457 0.143 0.2843 0.4679 0.0298 0.1783-0.55039 0.561-0.59268 0.4555-0.64595 2.5771-0.11849 0.3711 0.39744 0.3876-0.17882 0.4317-0.70961-0.03-0.36042-0.4571-0.41088 0.3406-0.50145-0.018-0.52716 0.8247-0.12535 0.7636 0.0596 0.177 0.89576-0.2785 0.0238 0.013 0.35642 1.4634 0.15653 0.065 0.61607 0.3942 0.33057 0.7966-0.036 1.5458 0.39923 1.4961 0.32819 1.6505 0.47976 0.4949-0.13831 0.3191-0.34548 0.5388-0.01 0.4456-0.63104 0.2011-0.59241 0.2595-0.43377 0.2585-0.19998 0.022-1.4484 1.0169 0.18662-0.051 0.93906 0.6629 0.23369 0.3093 0.14579 0.4997-0.0589 0.089-0.27182 0.9093-1.9e-4 0.158 0.20715 0.7736 0.0594 0.2555-0.0558 0.071-0.25235 0.1856-0.30331 0.044-0.48488-0.2551-0.16828-0.1106-0.3079 0.03-0.28644 0.4902-0.41572 0.029-0.19841 0.3462 0.36798 0.51 0.16744 0.2912 0.22841s-0.51 0.4587-0.596 0.48832c-0.086 0.0296-0.2209 0.0715-0.2209 0.0715l-0.083 0.45931 0.2341 0.26434-0.5319 0.3807-0.085 0.51025-0.09 2.4167 1.1884 1.1109 0.2459 0.25787 1.0856 0.02 0.1284-0.79841h0.7371l0.1899-0.21904-0.01-0.1972 1.5972-0.0181 0.088 0.56258 1.3063 0.11702 0.3004 0.27074 0.3942 0.0149 0.3696 0.27615 0.088 0.55782-0.2985 0.29564v0.17753l0.3559 0.0824-0.1599 0.44811 0.4802 0.0596 0.1447 0.37438 0.3881 0.26845-0.2502 0.23306-0.06 0.56398-0.7588 0.0736 0.074 0.28287 0.52 0.16281 0.3843 0.22664-0.1795 0.488-0.3231 0.17804-0.011 1.0253 0.3318 0.34854v0.32027l0.5875 0.36976 0.065 0.44022 0.045 0.43507 0.1795 0.0904-0.052 0.38216-1.6241 0.0156-0.1379-0.37209-0.2638-0.23141-0.2558-0.28891-0.2209-0.27475-0.1467-0.38568-0.1406-0.23407-0.2859-0.16364-0.4847-0.52981-0.9329-0.1294-0.2044-0.8784-0.304-0.30024-0.5442-0.1311 0.023-1.4715-0.2652-0.11013v-1.0902l-0.4032-0.30789-0.3825-0.31065-0.3213-0.22059-0.3289-0.15223-0.4344 7e-5 -0.3178 0.0365-0.9422-0.26513-0.7263-0.75796-0.86-0.29342-1.0712-0.3289-0.7672-0.19766-1.23 0.10788-0.5315 0.0414-0.2758 0.24259 0.099 1.0186-0.376 0.53314-0.4014 0.5357-0.3042 0.65196-0.2994 0.31787-0.055 1.1102 0.115 0.52876 0.2213 0.49986 0.046 0.41651 0.3278 0.41017-0.6462 0.0716-0.3659-0.25199-0.7832 0.0105-0.2779 0.2071-0.8234-0.0751-0.6159 0.16357-0.3425 0.43756 0.032 0.36126-0.5967 0.3178-0.093 0.53047-0.7224 0.0618-0.1294 0.30305-0.2191 0.28963-0.3321-0.28542-0.2339-0.3468-0.4927 0.0316-0.284-0.20806-0.117-0.34463-0.2969-0.30736-0.2612-0.4644-0.1115-0.46538-0.3226-0.45757-0.432-0.38406-0.5969 0.34276-0.3041 0.20906-0.1152 4e-3v-0.26018l-0.021-0.33728-0.042-0.17033-0.3295 0.23581-0.1578 0.32327-0.2193 0.15945-0.2166 0.24285-0.1328 0.29637-1.3362-0.56297-1.0597-0.43059-0.6384 0.3242-0.5705 0.54958-0.4247 8e-3 -0.1152-0.80081-0.4113-0.5305-0.3146-0.15843-0.5447 0.0596-0.3773 0.65882-0.5205 0.22572-0.7377 9e-3 -0.9963 0.0745-0.6452 0.0149-0.2547-0.45297-0.5308-0.2664-0.4028 0.20355-0.7725 0.16205-0.5143 0.29278-0.6142 0.13122-0.6471-0.25333-0.5187-0.11787-0.1996-0.39787-0.4004 0.0298-0.462 0.30581-0.4209 0.23162-0.1598 0.397 0.03 0.7277-0.5242 0.0133-0.5707-0.19011-0.8272 0.61186-0.9233 0.6609-0.4043 0.26812 0.1462 1.0632-0.071 0.64381-3.1595 1.4268-0.4419 0.0335-0.2533-0.68926-0.3272 0.16383-0.088 0.72987-0.4206 0.0171-0.2615-0.76373-1.3904 0.35281-0.9705 0.46885-0.6052 0.6052-0.4709 0.0918-0.6807-0.10537-0.743-0.20481-0.6184-0.0421-1.6716 0.4835-1.3824 0.74137-0.8095 0.80807-0.3831 0.53651-0.082 1.5262-0.7708 0.01-0.4463 0.0163-0.2735 0.57315-0.1042 1.0036-0.4729 0.75269 0.4944 0.35338 0.4233 0.48498-0.098 0.30166-1.1166-0.0516-0.6038 0.18966-2.217 2.3799-0.013 0.75839-0.023 1.0764-1.0475 1.9436-1.383 2.4831-0.674 0.74555-2.4174 1.825-0.077-0.20045 0.5821-0.58838-0.5219-0.43304-0.8291-0.12617-0.5275 0.45235-0.6816 0.23181-0.2647-0.17669-1.4643 1.4478-0.1374 0.51052-0.1219 0.41674 0.2861 1.0967 1.0678 1.0913 1.2628 1.4664 0.2072 4.9226-6.0726 6.4776-0.7293 0.17433-0.2602 0.40022-0.02 0.66064 0.024 0.77767-0.5806 0.81461-0.5829 0.89262-0.5809 1.4611 0.059 0.64163-1.8056 4.2548-1.0374 0.14752-5.5794 1.8549-0.8069 0.30506-1.1624 1.1849-3.0474-0.73673-1.6473 0.0284-1.1637 0.90142-1.8572 1.7505-0.9904 1.0817 0.1571 0.8522-0.274 0.49786-0.3951-0.0212-0.7042 1.1765 0.1264 0.40916-0.7052 0.83439-0.7681 0.16056-1.3048 3.5088-0.7679 1.0918-1.2489 1.0176-0.5826 1.2489-0.5136 1.2913-0.3558 1.2937 0.015 2.5724 0.2755 0.68482-0.1581 0.81555-0.3276 0.73723-0.512 0.34469-0.021 1.3891 0.3728 0.45087-0.04 0.5528-0.4007 0.93873-0.3958 0.0411-0.8778-0.17145-0.9242 1.1152-1.0014 0.94085-0.1054 0.98777 0.025 0.61243-0.9488 1.017-1.1257 1.798-1.4621 0.63533-0.7491 0.91819-0.2563 0.74669-1.0064 1.772-0.6032 0.46667 0.2205 0.51816-2.9559 1.2285-0.4051 0.64525-0.6584-0.19676-1.7243-0.0505-1.0846 0.77178-0.4695 0.9891-0.5825 0.32574-0.683 1.8091 0.02 0.93544-1.6473 0.86451-1.3977 0.49301-0.6763 0.6629-0.6092 0.68794 0.016 0.6485-0.1383 0.45647-0.7116 0.04-0.9308 0.33891-0.1028 0.38819 0.4742 0.47716-0.6295 0.208-0.6224-0.61676-2.915 0.19724-1.9663-0.13648-3.1998 1.2023-2.1481 0.16072-3.0695-0.15078-1.2637 0.69728-0.2922 0.79847 0.1264 0.82023-0.052 0.61693-0.6361 0.55252-0.8666-0.22619-0.473-0.41743-0.2283-0.97184-2.1431-0.67278-2.159-0.87282-1.8794-0.39303-2.4306-0.52421-3.2421-1.1171-3.6286-1.6842-3.0706-1.1889-2.6408-0.48641-6.6242-1.2408-4.1463 0.15739-1.1385-0.71288-4.2739-0.58962-1.4609 0.57673-1.2563 0.35768-0.951 0.27633-1.0318 0.0211-1.4908-0.0605-1.1141-0.5551-1.5165 0.4931-0.022 0.57016-0.6674 0.1365-0.2534-0.48784-2.471-0.1428-0.9004 0.0138-0.1262 0.78421-0.9936 0.76903-1.3564 1.0213-0.95992 0.74508-0.88317 0.33453-0.8819 0.23795-0.11475 0.45209 0.46096 0.2401 0.81419 0.14752 1.2714-0.129 1.0909-0.16448 1.5275-0.23629 1.0652-0.13462s1.3201 4e-3 1.42-0.0342c0.1-0.0383 0.9404-0.0225 0.9404-0.0225l-0.043 0.44706-1.8254 2.5e-4 -1.5598 0.17683-2.5392 0.48794-1.4433 6.2e-4 -1.7129-0.20896-0.56575-0.57938-1.0359 0.0384-0.0823 0.49633-0.52264-0.0632-0.28372-0.29998-1.0507 0.0739-0.68343 0.42281-0.28823 0.71298-0.55347 0.82313-0.84217-0.32834-0.91941 0.55828 0.0167 1.248-0.31436 0.95393-2.258 0.12091-0.93595 0.42367-1.146 0.8727-1.3672 0.51505-0.98184-0.0521-0.64799-0.48328-0.1303-0.52527-0.37997-0.18904-1.7332 0.18461-0.45777 0.43455-1.085 0.14217-0.32612 0.37306-0.042 1.1094-0.46176 0.32239-1.4795-0.10256-0.62387 0.22342-0.5159 0.30174-0.37008 0.20155-0.72629-0.0159-1.8894 0.0126-0.42835-0.77603-0.96191-1.1388 0.15774-1.2367-0.97352-0.97926-0.25877-0.019-1.7809-1.7166-0.34614 0.0133-1.7776-1.5834-1.2782-1.3852-1.2077 0.35396-2.5477-1.5483-1.7254 0.38748-1.3163-0.21763-1.8131-0.0446-3.4483-1.4158-0.10495-0.19984-1.9299 0.15288-0.97785-1.6036-0.87648-2.7e-4 0.22985-0.68128-0.64138-0.21522-0.18639-0.61995-0.81091-0.0298-0.0215 0.71715-1.3981-0.14065-1.8013-1.882-2.378-0.53908-1.266-0.50071-1.7364-1.1419-0.54213-0.14744-4.6572-0.0934-0.83525 0.21904-1.6723 0.35109-2.1113-1.4128-1.2468-0.63523-1.056-0.35356-1.026-0.13057-1.2856-0.35665-0.76314-0.10431-0.77519-0.17728-0.68474 0.39997-0.5343 0.57319-1.243 0.11487h-1.5855l-1.5429 0.49916-2.1716 0.0231-2.495-0.0526-0.65198-0.0438-1.1419-1.1901-1.2105-0.17442-1.5553-0.42729-0.50072-0.28783-1.157-1.0986-0.51707-0.0563-0.86465-0.30833-0.68633-0.22349-0.34514-0.13613-3.0268-3.0061-0.67979-0.11925-2.2052-1.4402-0.97052-0.56007-0.77672-0.24591-0.82328-0.25714-0.54233-0.18883-0.67492 0.38369-0.31078 6e-3 -5.3596-3.0137-0.80056-0.20106-1.7752-0.0334-2.3035-0.32249-1.98-0.6814-1.5481-0.70596-1.3101-0.89746-0.94702-0.5617-1.076-0.4918-1.3027-0.66314-1.1688-0.31293-2.0899 0.0146-0.62552 0.51521-0.66439 0.36567-0.85754-0.52405-0.34501-0.82197 0.20481-0.24733-0.5841-0.5764-0.59609-0.0447 0.0282-0.65576-4.3237-4.2953-3.191-0.86751-2.1243-0.62579-1.3625 0.11871-4.3488-2.6742-3.2384 0.22354-0.0955 0.39753-1.029 0.0699-0.34444-0.33617-1.8859-0.43684-1.8281-1.4361-1.0326-2e-3 -0.56757 0.91124 0.0298 0.40672 1.2814 0.38546 0.55352 0.41301-1.0223-0.1051-0.80367-0.17724-0.74365-0.0296-1.8304-0.47484-1.2413 0.58601-1.6421 0.46608-1.3427 0.0247-1.1137-0.88558-1.249-0.98487-1.3238-1.2032-1.6857-1.5932-1.8139-1.9649-1.4954-1.3636-1.4644-0.42447-1.248-0.53483-0.81101-0.76325-0.68827-0.9135-0.64239-1.6025-1.6318-1.6276-1.8503-0.33024-0.39434-0.0998-1.9376-1.5588-3.0454-3.9931-1.8057-0.93261-2.4753-1.2957-2.5847-3.3056-1.0756-0.0836-0.34517 0.35687-0.84063-0.12691-1.2031-0.75711-1.3052 0.22577-2.0737-2.071-3.945-4.0769-2.1647-0.97911-4.3887-0.9713-5.5286-2.7003-6.9143-4.4205-0.7105 0.36522-0.65086-0.0954 0.15568-0.65336-2.9286-1.5135-0.43594 0.23579-0.6591-0.89923-4.9089-2.3778-2.5156-0.26794-1.8249-1.2584-1.3056-0.0797-0.40489-1.1507-1.985-1.6714-1.256-1.1652-0.44905-0.23278-1.3303-1.4055-0.54494-0.17925-1.4512-0.91382-1.6946-0.1038-0.92144-0.30979-2.0347-0.95156-1.5327-1.0503-2.0383-1.5858-2.2191-1.387-0.17715-0.38319-0.0538-1.2974-0.28265-0.23004-7e-3 -0.70407 0.30935-0.14502-0.0399-1.2886-0.72628-0.65131 0.13676-1.3137-1.0213-1.7485-2.3773-2.8945-0.8885 0.10675-2.1953-0.73043-0.96108-2.9291-0.99945-1.4653-1.4822 0.0402-0.62372-0.28251-0.0771-0.47548-1.1636-1.265-0.43521 0.0591-1.0088-0.70066-2.5336-4.3414-2.3848-5.1483-3.0882-2.5199-0.69259-0.38449-1.2288-0.76363-2.6764-4.5445-1.1441-1.3151v-0.53674l0.3923-0.27047-0.0298-0.32616-0.80383-0.55223 0.14595-0.23999 0.61541-0.0149-0.0236-0.39714-0.30304-0.46696 0.24988-0.38716 0.45336-1.3624 0.85333-1.3186 0.0245-2.7606-2.4586-5.1878-0.30416-0.67784 0.29583-0.0419 0.0294-0.54834-0.34664-0.17702-0.70053-1.3226 0.11284-3.3561-0.30294-0.33874-0.30255-0.91165-2.9316-6.4427-0.0459-1.3488-0.52018-0.66251-0.56366-0.70558-0.59947-0.40745-0.43268-0.0993-1.3375-0.92029-2.4854-2.5492-3.2704-1.3569-2.1164-2.467-0.54883-1.478-0.38402-0.98464-0.35145-0.653 0.11784-0.87284z" fill="none" stroke-width=".6184" class="svg-elem-1"></path>
     <path d="m545.37 235.66-1.0111 1.04 0.06 0.59059 0.5609-0.0596-0.149 1.4891 0.9513 0.45995-0.298 1.0459 0.8764 0.72075 0.3441 1.0895 1.0441-0.0148 0.6303 0.68179 0.5646-0.17055 0.8276 0.64722 0.9946 0.11389 0.5148 1.4576 0.9771-6e-3 0.3329-0.59997 0.5091 0.58796 1.4001-0.22789 0.4543 1.5321 0.8049 0.0298-0.058-0.76573 2.1645 0.10262-0.4732-0.8619 0.032-0.42071-1.1572-0.22523-0.254-0.84348-0.652-0.13277-0.2046-1.3443-0.7707 0.37058-0.6919-4e-3 -0.3215-0.28341-0.3163-0.34572-0.4281 0.32628 0.089 0.62366-1.3765-0.11921-0.089-0.47243 0.6998-0.70407-0.033-0.49538-0.7465 0.46352-0.5317-0.41831-0.2018-0.64567-0.364 0.55454-3.0469-0.17836-0.7192-0.87229v-0.56511l0.7055-0.35159-0.2676-0.52542-0.072 0.45584-0.3904 0.27853-0.4985-0.31339v-0.42281l0.1268-0.94504-0.5263-0.0856z" fill="none" stroke-width=".6184" class="svg-elem-2"></path>
     <path d="m559.34 246.86-0.6471 0.86543 0.8983 0.10558 0.308 0.50106 0.9401-0.111 0.5394-0.24929 0.8982 0.0255 0.6952-0.89224 0.7709-1.1491 0.5069-0.66329-0.072-1.0434-0.5776 0.64882-0.926 0.14677-0.6492 0.67542-0.8397 0.5762 0.3991 0.50137-0.2451 0.43018-0.6519 0.21788-0.7684-0.20381 0.023-1.1373z" fill="none" stroke-width=".6184" class="svg-elem-3"></path>
     <path d="m110.58 364v91.91h-22.388v-55.12l-20.555 55.12h-18.068l-20.686-55.25v55.25h-22.388v-91.91h26.447l25.792 63.63 25.53-63.63z" fill="#fff" stroke-width=".5762" class="svg-elem-4"></path>
     <path d="m183.9 439.68h-34.302l-5.4989 16.235h-23.436l33.255-91.91h25.923l33.255 91.91h-23.697zm-5.7607-17.282-11.39-33.648-11.26 33.648z" fill="#fff" stroke-width=".5762" class="svg-elem-5"></path>
     <path d="m257.61 364q14.533 0 25.4 5.7607 10.867 5.7607 16.758 16.235 6.0226 10.343 6.0226 23.959 0 13.485-6.0226 23.959-5.8916 10.474-16.889 16.235-10.867 5.7607-25.269 5.7607h-34.433v-91.91zm-1.4402 72.533q12.7 0 19.77-6.939 7.07-6.9391 7.07-19.639 0-12.7-7.07-19.77-7.07-7.0699-19.77-7.0699h-10.605v53.417z" fill="#fff" stroke-width=".5762" class="svg-elem-6"></path>
     <path d="m340.75 381.94v18.591h29.982v17.282h-29.982v20.162h33.91v17.937h-56.298v-91.91h56.298v17.937z" fill="#fff" stroke-width=".5762" class="svg-elem-7"></path>
     <path d="m411.58 364v91.91h-22.388v-91.91z" fill="#fff" stroke-width=".5762" class="svg-elem-8"></path>
     <path d="m474.68 455.91-19.115-34.695h-5.368v34.695h-22.388v-91.91h37.576q10.867 0 18.46 3.7968 7.7246 3.7968 11.522 10.474 3.7968 6.5463 3.7968 14.664 0 9.1648-5.237 16.366-5.1061 7.2009-15.187 10.212l21.21 36.397zm-24.483-50.537h13.878q6.1535 0 9.1648-3.0113 3.1422-3.0113 3.1422-8.5101 0-5.237-3.1422-8.2483-3.0113-3.0113-9.1648-3.0113h-13.878z" fill="#fff" stroke-width=".5762" class="svg-elem-9"></path>
     <path d="m570.39 439.68h-34.302l-5.4989 16.235h-23.436l33.255-91.91h25.923l33.255 91.91h-23.698zm-5.7607-17.282-11.39-33.648-11.26 33.648z" fill="#fff" stroke-width=".5762" class="svg-elem-10"></path>
     <path d="m92.337 469.27v91.91h-22.388v-91.91z" fill="#fff" stroke-width=".5762" class="svg-elem-11"></path>
     <path d="m141.83 562.09q-10.081 0-18.068-3.2731-7.9864-3.2732-12.831-9.6885-4.7133-6.4153-4.9752-15.449h23.828q0.5237 5.1061 3.535 7.8555 3.0113 2.6185 7.8555 2.6185 4.9752 0 7.8555-2.2257 2.8804-2.3567 2.8804-6.4153 0-3.4041-2.3566-5.6298-2.2257-2.2258-5.6298-3.6659-3.2731-1.4402-9.4266-3.2732-8.9029-2.7494-14.533-5.4988-5.6298-2.7495-9.6885-8.1174t-4.0587-14.009q0-12.831 9.2957-20.032 9.2957-7.3318 24.221-7.3318 15.187 0 24.483 7.3318 9.2957 7.2009 9.9503 20.162h-24.221q-0.26185-4.4514-3.2731-6.939-3.0113-2.6185-7.7246-2.6185-4.0587 0-6.5463 2.2257-2.4876 2.0948-2.4876 6.1535 0 4.4515 4.1896 6.939 4.1896 2.4876 13.093 5.368 8.9029 3.0113 14.402 5.7607 5.6298 2.7494 9.6885 7.9864t4.0587 13.485q0 7.8555-4.0587 14.271-3.9278 6.4153-11.521 10.212-7.5937 3.7968-17.937 3.7968z" fill="#fff" stroke-width=".5762" class="svg-elem-12"></path>
     <path d="m211.48 543.89h29.327v17.282h-51.715v-91.91h22.388z" fill="#fff" stroke-width=".5762" class="svg-elem-13"></path>
     <path d="m308.76 544.94h-34.302l-5.4989 16.235h-23.436l33.255-91.91h25.923l33.255 91.91h-23.697zm-5.7607-17.282-11.39-33.648-11.26 33.648z" fill="#fff" stroke-width=".5762" class="svg-elem-14"></path>
     <path d="m430.25 561.18h-22.388l-37.445-56.691v56.691h-22.388v-91.91h22.388l37.445 56.952v-56.952h22.388z" fill="#fff" stroke-width=".5762" class="svg-elem-15"></path>
     <path d="m480.92 469.27q14.533 0 25.4 5.7607 10.867 5.7607 16.758 16.235 6.0226 10.343 6.0226 23.959 0 13.485-6.0226 23.959-5.8916 10.474-16.889 16.235-10.867 5.7607-25.269 5.7607h-34.433v-91.91zm-1.4402 72.533q12.7 0 19.77-6.9391 7.0699-6.939 7.0699-19.639 0-12.7-7.0699-19.77-7.07-7.0699-19.77-7.0699h-10.605v53.418z" fill="#fff" stroke-width=".5762" class="svg-elem-16"></path>
    </g>
   </svg>
   