<svg id="spot" width="189.82pt" height="60.229pt" version="1.1" viewBox="0 0 189.82 60.229" xmlns="http://www.w3.org/2000/svg">
 <g transform="translate(97.03 .73392)" stroke-width=".69436" aria-label="SPOT">
  <path d="m-76.949 59.495q-5.7493 0-10.332-1.9998-4.4995-2.0831-7.0825-5.666-2.583-3.6662-2.6664-8.4157h8.0824q0.41662 4.0829 3.3329 6.9159 2.9997 2.7497 8.6657 2.7497 5.416 0 8.499-2.6664 3.1663-2.7497 3.1663-6.9992 0-3.3329-1.8331-5.416-1.8331-2.0831-4.5828-3.1663-2.7497-1.0832-7.4158-2.3331-5.7493-1.4998-9.2489-2.9997-3.4163-1.4998-5.916-4.6661-2.4164-3.2496-2.4164-8.6657 0-4.7495 2.4164-8.4157 2.4164-3.6662 6.7492-5.666 4.4162-1.9998 10.082-1.9998 8.1657 0 13.332 4.0829 5.2494 4.0829 5.916 10.832h-8.3324q-0.41662-3.3329-3.4996-5.8327-3.083-2.583-8.1657-2.583-4.7495 0-7.7491 2.4997-2.9997 2.4164-2.9997 6.8325 0 3.1663 1.7498 5.1661 1.8331 1.9998 4.4162 3.083 2.6664 0.99988 7.4158 2.3331 5.7493 1.5832 9.2489 3.1663 3.4996 1.4998 5.9993 4.7495 2.4997 3.1663 2.4997 8.6657 0 4.2495-2.2497 7.9991-2.2497 3.7496-6.6659 6.0826-4.4162 2.3331-10.415 2.3331z"/>
  <path d="m-10.624 17.833q0 7.2492-4.9994 12.082-4.9161 4.7495-15.082 4.7495h-11.165v24.247h-7.5825v-58.077h18.748q9.8322 0 14.915 4.7495 5.1661 4.7495 5.1661 12.249zm-20.081 10.582q6.3326 0 9.3323-2.7497t2.9997-7.8324q0-10.749-12.332-10.749h-11.165v21.331z"/>
  <path d="m92.788 0.83532v6.166h-15.832v51.911h-7.5825v-51.911h-15.915v-6.166z"/>
 </g>
</svg>
