<svg width="30pt" height="43.922634pt" version="1.1" viewBox="0 0 29.999999 43.922633" id="svg158" xml:space="preserve" xmlns="http://www.w3.org/2000/svg"><g id="g3271" clip-path="none" transform="matrix(0.28419105,0,0,0.28419105,643.23308,229.98717)"><g id="g3269"><g id="g156" transform="translate(202.13438,-754.67814)"><g id="g3423" transform="matrix(0.10590042,0,0,0.10590042,-2204.4177,-48.810193)"><g id="g602"><path d="M 499.7209,0.03201493 C 172.2129,-3.3462751 22.8652,261.37236 2.1963,446.28325 c -0.3396,3.84911 -0.6453,7.70981 -0.8717,11.59282 -0.012,0.15853 -0.012,0.32831 -0.034,0.48681 -0.2716,4.3134 -0.5208,8.64941 -0.7359,13.68736 C 0.1924,480.74486 0,489.54149 0,498.42855 v 0.0116 c 0,39.96336 4.5284,79.99631 13.4381,119.02934 9.804,42.8616 24.8837,84.4102 45.467,124.6344 0.045,0.079 9.4983,16.778 15.5779,28.2915 0.5208,0.9849 1.0981,1.9472 1.7208,2.8755 3.3738,4.9815 5.8077,8.9891 8.1173,12.7701 2.3321,3.8265 4.5623,7.4493 7.2116,11.4117 l 375.5205,646.50271 c 5.5361,9.5325 15.6912,15.3967 26.718,15.4646 h 0.1585 c 10.9587,0 21.1024,-5.7626 26.718,-15.1704 L 905.3265,797.34109 c 1.2793,-1.9133 2.5133,-3.8491 3.77,-5.7964 l 12.2041,-18.7818 c 0.4415,-0.668 0.8264,-1.3359 1.2227,-2.0265 l 7.2907,-13.3138 C 973.6494,678.49289 996.8118,588.91802 996.8118,498.39543 996.7668,205.38682 789.5619,0.17978493 499.7116,0.01996493 Z" id="path1350" style="fill:#ffffff;fill-opacity:1;stroke:none;stroke-width:2.89821;stroke-opacity:1" transform="translate(-2465.517,-54.59145)"/><path d="m -1762.6919,552.91945 60.7224,-104.25643 48.5784,28.29698 -60.7224,104.25644 z m 54.6741,-155.73153 -359.4256,-209.71757 -102.3309,176.23856 149.0763,86.54346 -61.9034,88.43286 h -108.6489 v -99.17592 h -62.5374 v 260.8836 h 62.5374 V 601.2215 h 140.8645 l 84.0134,-119.38741 156.0249,90.95845 z" style="fill:#000000;stroke-width:1.128" id="path3400"/></g></g></g></g></g></svg>