<svg version="1.1" id="svg158" xmlns:svg="http://www.w3.org/2000/svg"
	 xmlns="http://www.w3.org/2000/svg" xmlns:xlink="http://www.w3.org/1999/xlink" x="0px" y="0px" width="51.2264px" height="75px"
	 viewBox="0 0 51.2264 75" enable-background="new 0 0 51.2264 75" xml:space="preserve">
<path fill="#FFFFFF" d="M25.6803,0.001l0.0004,0.0006C8.85-0.172,1.175,13.432,0.1128,22.9346
	c-0.0175,0.1978-0.0332,0.3962-0.0449,0.5957c-0.0005,0.0082-0.0005,0.0169-0.0018,0.0251
	c-0.0139,0.2216-0.0267,0.4445-0.0378,0.7034c-0.0186,0.4468-0.0284,0.8989-0.0284,1.3556v0.0006
	c0,2.0537,0.2328,4.111,0.6905,6.1169c0.5038,2.2026,1.2789,4.3378,2.3367,6.405c0.0023,0.0041,0.4881,0.8622,0.8005,1.4539
	c0.0269,0.0506,0.0565,0.1001,0.0885,0.1478c0.1734,0.256,0.2984,0.462,0.4171,0.6562c0.1199,0.1967,0.2345,0.3828,0.3707,0.5865
	L24.002,74.2053c0.2845,0.4899,0.8063,0.7913,1.373,0.7947h0.0082c0.5631,0,1.0844-0.2961,1.373-0.7796l19.7687-33.2448
	c0.0659-0.0983,0.1293-0.1978,0.1937-0.2979l0.6273-0.9651c0.0226-0.0344,0.0424-0.0687,0.0629-0.1042l0.3745-0.6841
	c2.2528-4.0562,3.4432-8.6595,3.4432-13.3115C51.2239,10.5549,40.5756,0.0092,25.6803,0.001z M25.6512,27.5671l-4.3175,6.1353
	h-7.2391v5.0964h-3.2139V25.392h3.2139v5.0967h5.5835l3.1812-4.5446l-7.6611-4.4475l5.2589-9.0569L38.928,23.217l-5.2587,9.0244
	L25.6512,27.5671z M38.6148,32.6743l-2.4965-1.4542l3.1205-5.3578l2.4965,1.4542L38.6148,32.6743z"/>
</svg>