<svg xmlns="http://www.w3.org/2000/svg" id="triangle" width="42" height="42" viewBox="0 0 21 21"><g><path d="M0,0 H21 V21 H0 Z" fill="none"/><path d="M10.538 5c-0.294 0-0.488 0.177-0.615 0.385l-5.846 9.538C4 15 4 15.153 4 15.308c0 0.538 0.385 0.692 0.692 0.692h11.616c0.384 0 0.692-0.154 0.692-0.692 0-0.154 0-0.231-0.077-0.385l-5.77-9.538C11.029 5.177 10.789 5 10.539 5z" fill="#4264FB" stroke="#042AD3" stroke-linejoin="round" stroke-miterlimit="4px" stroke-width="2"/><path d="M10.538 5c-0.294 0-0.488 0.177-0.615 0.385l-5.846 9.538C4 15 4 15.153 4 15.308c0 0.538 0.385 0.692 0.692 0.692h11.616c0.384 0 0.692-0.154 0.692-0.692 0-0.154 0-0.231-0.077-0.385l-5.77-9.538C11.029 5.177 10.789 5 10.539 5z" fill="#4264FB"/></g></svg>